<?xml version="1.0" encoding="utf-8"?>
<!-- Generator: Adobe Illustrator 21.0.0, SVG Export Plug-In . SVG Version: 6.00 Build 0)  -->
<svg version="1.1" id="Layer_1" xmlns="http://www.w3.org/2000/svg" xmlns:xlink="http://www.w3.org/1999/xlink" x="0px" y="0px"
	 viewBox="0 0 730 320" style="enable-background:new 0 0 730 320;" xml:space="preserve">
<style type="text/css">
	.st0{fill:#FF0000;}
	.st1{opacity:0.55;fill:#FF0000;enable-background:new    ;}
	.st2{opacity:0.3;fill:#FF0000;enable-background:new    ;}
	.st3{fill:none;stroke:#000000;stroke-miterlimit:10;}
	.st4{fill:#808080;}
	.st5{fill:#666666;}
</style>
<g id="Layer_2">
</g>
<rect x="96.3" y="120.6" class="st0" width="48.6" height="142.7"/>
<rect x="180.2" y="191.9" class="st1" width="48.6" height="71.3"/>
<rect x="264.2" y="49.3" class="st2" width="48.6" height="214"/>
<g>
	<line class="st3" x1="71" y1="263.3" x2="331.2" y2="263.3"/>
	<g>
		<g>
			<line class="st3" x1="162.3" y1="263.3" x2="162.3" y2="257.9"/>
			<line class="st3" x1="246.8" y1="263.3" x2="246.8" y2="257.9"/>
			<line class="st3" x1="331.2" y1="263.3" x2="331.2" y2="257.9"/>
		</g>
	</g>
</g>
<g>
	<g>
		<path class="st4" d="M62.2,263.8c0,2.6-1,4.1-2.7,4.1c-1.5,0-2.5-1.4-2.6-4c0-2.6,1.1-4,2.7-4C61.3,259.9,62.2,261.3,62.2,263.8z
			 M58,263.9c0,2,0.6,3.1,1.6,3.1c1.1,0,1.6-1.3,1.6-3.2c0-1.9-0.5-3.1-1.6-3.1C58.7,260.7,58,261.8,58,263.9z"/>
	</g>
	<g>
		<path class="st4" d="M57.1,223.8c0.3,0.2,1,0.5,1.7,0.5c1.3,0,1.8-0.9,1.7-1.5c0-1.1-1-1.5-2-1.5h-0.6v-0.8h0.6
			c0.8,0,1.7-0.4,1.7-1.3c0-0.6-0.4-1.2-1.4-1.2c-0.6,0-1.2,0.3-1.5,0.5l-0.3-0.8c0.4-0.3,1.2-0.6,2-0.6c1.5,0,2.2,0.9,2.2,1.8
			c0,0.8-0.5,1.5-1.4,1.8l0,0c1,0.2,1.7,0.9,1.7,2c0,1.2-0.9,2.3-2.8,2.3c-0.9,0-1.6-0.3-2-0.5L57.1,223.8z"/>
	</g>
	<g>
		<path class="st4" d="M61,175.1c-0.2,0-0.5,0-0.8,0.1c-1.6,0.3-2.5,1.5-2.7,2.8l0,0c0.4-0.5,1-0.9,1.9-0.9c1.4,0,2.3,1,2.3,2.5
			c0,1.4-0.9,2.7-2.6,2.7c-1.7,0-2.7-1.3-2.8-3.3c0-1.5,0.5-2.7,1.3-3.5c0.6-0.6,1.5-1,2.5-1.2c0.3,0,0.6-0.1,0.8-0.1L61,175.1z
			 M60.7,179.6c0-1.1-0.6-1.8-1.6-1.8c-0.6,0-1.2,0.4-1.5,1c-0.1,0.1-0.1,0.3-0.1,0.5c0,1.3,0.6,2.2,1.7,2.2
			C60.1,181.5,60.7,180.7,60.7,179.6z"/>
	</g>
	<g>
		<path class="st4" d="M57,138.6c0.2,0,0.5,0,0.8,0c0.6-0.1,1.2-0.3,1.6-0.8c0.5-0.5,0.9-1.1,1-2.1l0,0c-0.4,0.5-1,0.8-1.8,0.8
			c-1.4,0-2.3-1-2.3-2.4c0-1.5,1-2.8,2.6-2.8s2.6,1.3,2.6,3.2c0,1.7-0.6,2.9-1.3,3.6c-0.6,0.6-1.4,0.9-2.2,1c-0.4,0.1-0.7,0.1-1,0.1
			L57,138.6z M57.3,134.2c0,1,0.6,1.6,1.5,1.6c0.7,0,1.2-0.4,1.5-0.8c0.1-0.1,0.1-0.2,0.1-0.4c0-1.3-0.5-2.3-1.6-2.3
			C58,132.3,57.3,133.1,57.3,134.2z"/>
	</g>
	<g>
		<path class="st4" d="M52.3,89.8L52.3,89.8l-1.4,0.7l-0.2-0.8l1.7-0.9h0.9v7.7h-1V89.8z"/>
		<path class="st4" d="M56.1,96.6V96l0.8-0.8c2-1.9,2.8-2.9,2.9-4.1c0-0.8-0.4-1.5-1.5-1.5c-0.7,0-1.3,0.4-1.6,0.7l-0.3-0.7
			c0.5-0.5,1.3-0.8,2.2-0.8c1.7,0,2.4,1.1,2.4,2.2c0,1.4-1,2.6-2.6,4.2l-0.6,0.6l0,0h3.5v0.9L56.1,96.6z"/>
	</g>
	<g>
		<path class="st4" d="M52,47L52,47l-1.4,0.7L50.5,47l1.7-0.9h0.9v7.7h-1L52,47z"/>
		<path class="st4" d="M60.5,46.9h-2.9l-0.3,2c0.2,0,0.3,0,0.6-0.1c0.6,0,1.2,0.1,1.7,0.4c0.6,0.3,1.1,1,1.1,2
			c0,1.5-1.2,2.6-2.9,2.7c-0.8,0-1.6-0.2-1.9-0.5l0.3-0.8c0.3,0.2,1,0.4,1.7,0.4c1,0,1.8-0.7,1.8-1.7s-0.7-1.7-2.2-1.7
			c-0.4,0-0.8,0.1-1.1,0.1l0.5-3.7h3.7L60.5,46.9z"/>
	</g>
</g>
<line class="st3" x1="71.6" y1="263.3" x2="70.4" y2="49.2"/>
<g>
	<g>
		<line class="st3" x1="71.4" y1="220.5" x2="77.7" y2="220.4"/>
		<line class="st3" x1="71.1" y1="177.6" x2="77.5" y2="177.6"/>
		<line class="st3" x1="70.9" y1="134.8" x2="77.2" y2="134.8"/>
		<line class="st3" x1="70.6" y1="92" x2="77" y2="92"/>
		<line class="st3" x1="70.4" y1="49.2" x2="76.7" y2="49.2"/>
	</g>
</g>
<g>
	<g>
		<path class="st5" d="M278.5,276.7v1.1c0.4,0.5,1.4,2.1,1.7,2.5l-0.5,0.7c-0.2-0.5-0.7-1.4-1.1-2.1v6.8h-0.9v-6.8
			c-0.5,1.6-1.1,3.1-1.7,4.1c-0.1-0.3-0.3-0.6-0.5-0.8c0.8-1.2,1.7-3.5,2.1-5.5h-1.8v-0.9h1.9v-3.1l1.1,0.1c0,0.1-0.1,0.2-0.3,0.2
			v2.9h1.6v0.9h-1.6V276.7z M287.9,275.6l0.5,0.1v0.2c-0.4,0.7-0.9,1.6-1.4,2.1l-0.7-0.3c0.3-0.3,0.7-0.8,0.9-1.3h-2.1v1.8
			c0,0.8-0.4,0.9-2.1,0.9c0-0.2-0.2-0.5-0.3-0.7c0.4,0,0.7,0,1,0c0.5,0,0.6,0,0.6-0.2v-1.8c-0.9,0.9-2.4,1.9-3.6,2.4
			c-0.1-0.2-0.3-0.5-0.5-0.7c1-0.3,2.3-1.1,3.2-1.8h-2.7v-0.7h4.4c-0.8-0.3-1.9-0.6-2.7-0.8l0.4-0.5c0.5,0.1,1.1,0.3,1.7,0.4
			c0.5-0.2,1.1-0.5,1.5-0.9h-4.7v-0.7h5.6h0.2l0.6,0.4c0,0.1-0.1,0.1-0.2,0.1c-0.5,0.5-1.3,1-2.1,1.4c0.4,0.1,0.8,0.2,1.1,0.3
			l-0.2,0.2h1.6L287.9,275.6z M288.1,279.3v5.5c0,0.9-0.4,1-2,1c0-0.2-0.2-0.6-0.3-0.8c0.3,0,0.6,0,0.8,0c0.6,0,0.7,0,0.7-0.2v-3.2
			c-0.1,0.1-0.3,0.2-0.6,0.2h-1c-0.7,0-0.9-0.2-0.9-0.9V280h-1.1c-0.1,1.2-0.4,1.9-1.9,2.2c-0.1-0.2-0.3-0.4-0.4-0.6
			c1.1-0.2,1.5-0.6,1.6-1.6h-1.6v5.7h-0.9v-6.4L288.1,279.3L288.1,279.3z M286.2,284.7h-2.9v0.6h-0.7v-3h3.6V284.7z M285.5,282.8
			h-2.2v1.2h2.2V282.8z M285.5,280.9c0,0.2,0,0.3,0.3,0.3h0.8c0.2,0,0.3,0,0.3-0.4c0.1,0.1,0.3,0.1,0.4,0.2v-1h-1.7L285.5,280.9
			L285.5,280.9z"/>
		<path class="st5" d="M302.5,279.1v0.9h-5.9v4.4c0,0.7-0.2,1-0.7,1.1c-0.5,0.2-1.4,0.2-2.8,0.2c-0.1-0.3-0.2-0.7-0.4-1
			c0.7,0,1.4,0,1.9,0c0.9,0,1,0,1-0.4V280h-6v-0.9h6v-2.3h0.5c1.1-0.6,2.3-1.4,3.2-2.2H291v-0.9h9.3l0.2-0.1l0.8,0.6
			c0,0.1-0.2,0.1-0.2,0.1c-1.1,1.1-3,2.4-4.6,3.2v1.5L302.5,279.1L302.5,279.1z"/>
	</g>
	<g>
		<path class="st5" d="M201.3,280.1v-3.2c-0.7,1.1-1.8,2.2-2.7,2.8c-0.1-0.2-0.4-0.5-0.6-0.7c1-0.6,2.2-1.6,2.9-2.8h-2.6v-0.8h3
			v-1.3c-0.9,0.1-1.8,0.2-2.6,0.2c0-0.2-0.1-0.5-0.2-0.7c1.9-0.2,4.3-0.5,5.5-0.9l0.7,0.8h-0.1h-0.1c-0.6,0.2-1.3,0.3-2.2,0.4v1.4
			h2.6v0.8h-2.6v0.6c0.7,0.3,2.2,1.2,2.6,1.4l-0.5,0.8c-0.4-0.3-1.3-0.9-2.1-1.4v2.5h-1V280.1z M210.8,281.8h-4.9
			c1.2,1.3,3.3,2.3,5.2,2.9c-0.2,0.2-0.5,0.5-0.6,0.8c-2-0.6-4.1-1.9-5.5-3.4v3.7h-1V282c-1.3,1.5-3.5,2.9-5.4,3.6
			c-0.2-0.2-0.4-0.6-0.6-0.8c1.8-0.6,3.8-1.7,5.1-3h-4.8v-0.9h5.8v-1.1l1.2,0.1c0,0.1-0.1,0.2-0.3,0.2v0.9h5.9L210.8,281.8
			L210.8,281.8z M206.9,273.5c0,0.1-0.1,0.2-0.3,0.2v4.6h-0.9v-4.9L206.9,273.5z M210.4,272.9c0,0.1-0.1,0.2-0.3,0.2v5.8
			c0,0.5-0.1,0.8-0.5,1c-0.4,0.1-1.1,0.1-2.2,0.1c0-0.3-0.2-0.6-0.3-0.9c0.5,0,1,0,1.3,0c0.7,0,0.8,0,0.8-0.3v-6L210.4,272.9z"/>
	</g>
	<g>
		<path class="st5" d="M108.8,280.5c0,0.1-0.1,0.1-0.3,0.1c-0.4,0.8-0.9,1.7-1.5,2.3c-0.1-0.1-0.4-0.3-0.6-0.4
			c0.5-0.5,1.1-1.4,1.4-2.3L108.8,280.5z M110.3,282.2c0,0.8-0.4,0.8-1.6,0.8c0-0.2-0.1-0.5-0.3-0.7c1,0,1,0,1-0.1v-2.5h-2.8v-0.8
			h0.9v-2.3l1.1,0.1c0,0.1-0.1,0.2-0.3,0.2v2.1h1.1v-3.3h0.7v-0.9h-3.4V274h3.4v-1.1l1.2,0.1c0,0.1-0.1,0.2-0.3,0.2v0.9h3.8V273
			l1.2,0.1c0,0.1-0.1,0.2-0.3,0.2v0.9h3.5v0.8h-3.5v0.9h-0.9V275H111v0.9h-0.8l0,0h0.2c0,0.1-0.1,0.2-0.3,0.2v1.1h2.1v0.8h-2.1v1.2
			h2.6v0.8h-2.4c0,0-0.1,0-0.2,0.1v2.1H110.3z M112.8,280.7c0,0.1-0.1,0.1-0.3,0.1c-0.7,2.5-2.2,4.1-5.3,4.9
			c-0.1-0.2-0.3-0.6-0.5-0.8c2.8-0.7,4.4-2.1,5-4.6L112.8,280.7z M115.5,284c0,0.1-0.1,0.1-0.3,0.1c-0.7,0.6-2,1.2-3.1,1.6
			c-0.1-0.2-0.4-0.5-0.5-0.7c1.1-0.4,2.4-1,3.1-1.6L115.5,284z M119.5,276.7h-3c-0.1,0.3-0.2,0.7-0.3,1h2.7v5.7h-5.5v-5.7h2
			c0.1-0.3,0.2-0.7,0.2-1h-2.9V276h6.9L119.5,276.7L119.5,276.7z M118,279.5v-1h-3.8v1H118z M118,281.1v-1h-3.8v1H118z M118,282.8
			v-1h-3.8v1H118z M119,285.7c-0.5-0.5-1.6-1.2-2.4-1.6l0.6-0.5c0.8,0.4,1.9,1.1,2.4,1.6L119,285.7z"/>
		<path class="st5" d="M133.3,281.1h-4.9c1.3,1.4,3.4,2.7,5.3,3.4c-0.2,0.2-0.5,0.6-0.7,0.8c-1.9-0.8-4.1-2.3-5.5-3.9v4.3h-1v-4.2
			c-1.4,1.6-3.5,3.1-5.4,3.8c-0.2-0.2-0.4-0.6-0.7-0.8c1.9-0.6,4-1.9,5.3-3.4h-4.9v-0.9h5.7V279h-4.3v-5.6h9.7v5.6h-4.5v1.3h5.8
			L133.3,281.1L133.3,281.1z M123.1,274.2v1.6h3.4v-1.6H123.1z M123.1,278.2h3.4v-1.6h-3.4V278.2z M131,275.8v-1.6h-3.5v1.6H131z
			 M131,278.2v-1.6h-3.5v1.6H131z"/>
	</g>
</g>
<g>
	<path class="st4" d="M412.8,274.6c0,2.6-1,4.1-2.7,4.1c-1.5,0-2.5-1.4-2.6-4c0-2.6,1.1-4,2.7-4
		C411.9,270.7,412.8,272.1,412.8,274.6z M408.6,274.7c0,2,0.6,3.1,1.6,3.1c1.1,0,1.6-1.2,1.6-3.2c0-1.9-0.5-3.2-1.6-3.2
		C409.3,271.5,408.6,272.6,408.6,274.7z"/>
</g>
<g>
	<path class="st4" d="M458.6,277.3c0.3,0.2,1,0.5,1.7,0.5c1.3,0,1.8-0.9,1.7-1.5c0-1.1-1-1.5-2-1.5h-0.6V274h0.6
		c0.8,0,1.7-0.4,1.7-1.3c0-0.6-0.4-1.2-1.4-1.2c-0.6,0-1.2,0.3-1.5,0.5l-0.3-0.8c0.4-0.3,1.2-0.6,2-0.6c1.5,0,2.2,0.9,2.2,1.8
		c0,0.8-0.5,1.5-1.4,1.8l0,0c1,0.2,1.7,0.9,1.7,2c0,1.2-1,2.3-2.8,2.3c-0.9,0-1.6-0.3-2-0.5L458.6,277.3z"/>
</g>
<g>
	<path class="st4" d="M513.5,271.5c-0.2,0-0.5,0-0.8,0c-1.6,0.3-2.5,1.5-2.7,2.7l0,0c0.4-0.5,1-0.9,1.9-0.9c1.4,0,2.3,1,2.3,2.5
		c0,1.4-1,2.7-2.6,2.7c-1.7,0-2.7-1.3-2.7-3.3c0-1.5,0.5-2.7,1.3-3.5c0.6-0.6,1.5-1,2.5-1.1c0.3,0,0.6-0.1,0.8-0.1L513.5,271.5
		L513.5,271.5z M513.2,276c0-1.1-0.6-1.8-1.6-1.8c-0.6,0-1.2,0.4-1.5,1c-0.1,0.1-0.1,0.3-0.1,0.5c0,1.3,0.6,2.2,1.7,2.2
		C512.6,277.9,513.2,277.1,513.2,276z"/>
</g>
<g>
	<path class="st4" d="M560.4,277.8c0.2,0,0.5,0,0.8,0c0.6-0.1,1.2-0.3,1.6-0.7c0.5-0.5,0.9-1.1,1-2.1l0,0c-0.4,0.5-1,0.8-1.8,0.8
		c-1.4,0-2.3-1-2.3-2.4c0-1.5,1.1-2.7,2.6-2.7s2.6,1.3,2.6,3.3c0,1.7-0.6,2.9-1.3,3.6c-0.6,0.6-1.4,0.9-2.2,1
		c-0.4,0.1-0.7,0.1-1,0.1L560.4,277.8L560.4,277.8z M560.8,273.4c0,1,0.6,1.6,1.5,1.6c0.7,0,1.2-0.3,1.5-0.8
		c0.1-0.1,0.1-0.2,0.1-0.4c0-1.3-0.5-2.3-1.6-2.3C561.4,271.5,560.8,272.3,560.8,273.4z"/>
</g>
<g>
	<path class="st4" d="M609.7,271.8L609.7,271.8l-1.4,0.7l-0.2-0.8l1.7-0.9h0.9v7.7h-1V271.8z"/>
	<path class="st4" d="M613.5,278.5v-0.6l0.8-0.8c2-1.9,2.9-2.9,2.9-4c0-0.8-0.4-1.5-1.5-1.5c-0.7,0-1.3,0.4-1.6,0.7l-0.3-0.7
		c0.5-0.5,1.3-0.8,2.2-0.8c1.7,0,2.4,1.1,2.4,2.2c0,1.4-1,2.6-2.7,4.1l-0.6,0.6l0,0h3.5v0.9h-5.1V278.5z"/>
</g>
<g>
	<path class="st4" d="M660.4,271.8L660.4,271.8l-1.4,0.7l-0.2-0.8l1.7-0.9h0.9v7.7h-1V271.8z"/>
	<path class="st4" d="M668.8,271.7h-2.9l-0.3,2c0.2,0,0.3,0,0.6,0c0.6,0,1.2,0.1,1.7,0.4c0.6,0.3,1.1,1,1.1,2c0,1.5-1.2,2.6-2.9,2.6
		c-0.8,0-1.6-0.2-1.9-0.5l0.3-0.8c0.3,0.2,1,0.4,1.7,0.4c1,0,1.8-0.6,1.8-1.7c0-1-0.7-1.7-2.2-1.7c-0.4,0-0.8,0-1.1,0.1l0.5-3.7h3.7
		L668.8,271.7L668.8,271.7z"/>
</g>
<line class="st3" x1="410.2" y1="263.3" x2="663.7" y2="263.3"/>
<line class="st3" x1="460.9" y1="263.3" x2="460.9" y2="257.9"/>
<line class="st3" x1="511.6" y1="263.3" x2="511.6" y2="257.9"/>
<line class="st3" x1="562.3" y1="263.3" x2="562.3" y2="257.9"/>
<line class="st3" x1="613" y1="263.3" x2="613" y2="257.9"/>
<line class="st3" x1="663.7" y1="263.3" x2="663.7" y2="257.9"/>
<rect x="410.2" y="52.9" class="st0" width="169" height="48.6"/>
<rect x="410.2" y="124.2" class="st1" width="84.5" height="48.6"/>
<rect x="410.2" y="195.6" class="st2" width="253.4" height="48.6"/>
<g>
	<line class="st3" x1="410.2" y1="263.3" x2="410.2" y2="41.5"/>
	<g>
		<g>
			<line class="st3" x1="410.2" y1="219.8" x2="416.6" y2="219.8"/>
			<line class="st3" x1="410.2" y1="148.5" x2="416.6" y2="148.5"/>
			<line class="st3" x1="410.2" y1="77.2" x2="416.6" y2="77.2"/>
		</g>
	</g>
</g>
<g>
	<g>
		<path class="st5" d="M377.7,216.5v1.1c0.4,0.5,1.4,2.1,1.7,2.5l-0.5,0.7c-0.2-0.5-0.7-1.4-1.1-2.1v6.8h-0.9v-6.8
			c-0.5,1.6-1.1,3.1-1.7,4.1c-0.1-0.3-0.3-0.6-0.5-0.8c0.8-1.2,1.7-3.5,2.1-5.5H375v-0.9h1.9v-3.1l1.1,0.1c0,0.1-0.1,0.2-0.3,0.2
			v2.9h1.6v0.9L377.7,216.5L377.7,216.5z M387.2,215.4l0.5,0.1v0.2c-0.4,0.7-0.9,1.6-1.4,2.1l-0.7-0.3c0.3-0.3,0.7-0.8,0.9-1.3h-2.1
			v1.8c0,0.8-0.4,0.9-2.1,0.9c0-0.2-0.2-0.5-0.3-0.7c0.4,0,0.7,0,1,0c0.5,0,0.6,0,0.6-0.2v-1.8c-0.9,0.9-2.4,1.9-3.6,2.4
			c-0.1-0.2-0.3-0.5-0.5-0.7c1-0.3,2.3-1.1,3.2-1.8H380v-0.7h4.4c-0.8-0.3-1.9-0.6-2.7-0.8l0.4-0.5c0.5,0.1,1.1,0.3,1.7,0.4
			c0.5-0.2,1.1-0.5,1.5-0.9h-4.7V213h5.6h0.2l0.6,0.4c0,0.1-0.1,0.1-0.2,0.1c-0.5,0.5-1.3,1-2.1,1.4c0.4,0.1,0.8,0.2,1.1,0.3
			l-0.2,0.2H387.2L387.2,215.4z M387.4,219.1v5.5c0,0.9-0.4,1-2,1c0-0.2-0.2-0.6-0.3-0.8c0.3,0,0.6,0,0.8,0c0.6,0,0.7,0,0.7-0.2
			v-3.2c-0.1,0.1-0.3,0.2-0.6,0.2h-1c-0.7,0-0.9-0.2-0.9-0.9v-0.8H383c-0.1,1.2-0.4,1.9-1.9,2.2c-0.1-0.2-0.3-0.4-0.4-0.6
			c1.1-0.2,1.5-0.6,1.6-1.6h-1.6v5.7h-0.9v-6.4L387.4,219.1L387.4,219.1z M385.4,224.4h-2.9v0.6h-0.7v-3h3.6V224.4z M384.7,222.6
			h-2.2v1.2h2.2V222.6z M384.7,220.6c0,0.2,0,0.3,0.3,0.3h0.8c0.2,0,0.3,0,0.3-0.4c0.1,0.1,0.3,0.1,0.4,0.2v-0.9h-1.7L384.7,220.6
			L384.7,220.6z"/>
		<path class="st5" d="M401.7,218.8v0.9h-5.9v4.4c0,0.7-0.2,1-0.7,1.1c-0.5,0.2-1.4,0.2-2.8,0.2c-0.1-0.3-0.2-0.7-0.4-1
			c0.7,0,1.4,0,1.9,0c0.9,0,1,0,1-0.4v-4.4h-6v-0.9h6v-2.3h0.5c1.1-0.6,2.3-1.4,3.2-2.2h-8.2v-0.9h9.3l0.2-0.1l0.8,0.6
			c0,0.1-0.2,0.1-0.2,0.1c-1.1,1.1-3,2.4-4.6,3.2v1.5h5.9V218.8z"/>
	</g>
	<g>
		<path class="st5" d="M392,148.5v-3.2c-0.7,1.1-1.8,2.2-2.7,2.8c-0.1-0.2-0.4-0.5-0.6-0.7c1-0.6,2.2-1.6,2.9-2.8H389v-0.8h3v-1.3
			c-0.9,0.1-1.8,0.2-2.6,0.2c0-0.2-0.1-0.5-0.2-0.7c1.9-0.2,4.3-0.5,5.5-0.9l0.7,0.8h-0.1h-0.1c-0.6,0.2-1.3,0.3-2.2,0.4v1.4h2.6
			v0.8H393v0.6c0.7,0.3,2.2,1.2,2.6,1.4l-0.5,0.8c-0.4-0.3-1.3-0.9-2.1-1.4v2.5L392,148.5L392,148.5z M401.6,150.2h-4.9
			c1.2,1.3,3.3,2.3,5.2,2.9c-0.2,0.2-0.5,0.5-0.6,0.8c-2-0.6-4.1-1.9-5.5-3.4v3.7h-1v-3.8c-1.3,1.5-3.5,2.9-5.4,3.6
			c-0.2-0.2-0.4-0.6-0.6-0.8c1.8-0.6,3.8-1.7,5.1-3H389v-0.9h5.8v-1.1l1.2,0.1c0,0.1-0.1,0.2-0.3,0.2v0.9h5.9V150.2z M397.6,141.9
			c0,0.1-0.1,0.2-0.3,0.2v4.6h-0.9v-4.9L397.6,141.9z M401.1,141.3c0,0.1-0.1,0.2-0.3,0.2v5.8c0,0.5-0.1,0.8-0.5,1
			c-0.4,0.1-1.1,0.1-2.2,0.1c0-0.3-0.2-0.6-0.3-0.9c0.5,0,1,0,1.3,0c0.7,0,0.8,0,0.8-0.3v-6L401.1,141.3z"/>
	</g>
	<g>
		<path class="st5" d="M377,77.6c0,0.1-0.1,0.1-0.3,0.1c-0.4,0.8-0.9,1.7-1.5,2.3c-0.1-0.1-0.4-0.3-0.6-0.4c0.5-0.5,1.1-1.4,1.4-2.3
			L377,77.6z M378.5,79.3c0,0.8-0.4,0.8-1.6,0.8c0-0.2-0.1-0.5-0.3-0.7c1,0,1,0,1-0.1v-2.5h-2.8V76h0.9v-2.3l1.1,0.1
			c0,0.1-0.1,0.2-0.3,0.2v2h1.1v-3.3h0.7v-0.9H375V71h3.4v-1.1l1.2,0.1c0,0.1-0.1,0.2-0.3,0.2v0.9h3.8V70l1.2,0.1
			c0,0.1-0.1,0.2-0.3,0.2v0.9h3.5V72H384v0.9h-0.9V72h-3.8v0.9h-0.8l0,0h0.2c0,0.1-0.1,0.2-0.3,0.2V74h2.1v0.8h-2.1V76h2.6v0.8h-2.4
			c0,0-0.1,0-0.2,0.1L378.5,79.3L378.5,79.3z M381,77.8c0,0.1-0.1,0.1-0.3,0.1c-0.7,2.5-2.2,4.1-5.3,4.9c-0.1-0.2-0.3-0.6-0.5-0.8
			c2.8-0.7,4.4-2.1,5-4.6L381,77.8z M383.7,81.1c0,0.1-0.1,0.1-0.3,0.1c-0.7,0.6-2,1.2-3.1,1.6c-0.1-0.2-0.4-0.5-0.5-0.7
			c1.1-0.4,2.4-1,3.1-1.6L383.7,81.1z M387.7,73.8h-3c-0.1,0.3-0.2,0.7-0.3,1h2.7v5.7h-5.5v-5.7h2c0.1-0.3,0.2-0.7,0.2-1h-2.9V73
			h6.9v0.8H387.7z M386.2,76.6v-1h-3.8v1H386.2z M386.2,78.2v-1h-3.8v1H386.2z M386.2,79.9v-1h-3.8v1H386.2z M387.2,82.8
			c-0.5-0.5-1.6-1.2-2.4-1.6l0.6-0.5c0.8,0.4,1.9,1.1,2.4,1.6L387.2,82.8z"/>
		<path class="st5" d="M401.5,78.2h-4.9c1.3,1.4,3.4,2.7,5.3,3.4c-0.2,0.2-0.5,0.6-0.7,0.8c-1.9-0.8-4.1-2.3-5.5-3.9v4.3h-1v-4.2
			c-1.4,1.6-3.5,3.1-5.4,3.8c-0.2-0.2-0.4-0.6-0.7-0.8c1.9-0.6,4-1.9,5.3-3.4H389v-0.9h5.7V76h-4.3v-5.6h9.8V76h-4.5v1.3h5.8
			L401.5,78.2L401.5,78.2z M391.4,71.3v1.6h3.4v-1.6H391.4z M391.4,75.3h3.4v-1.6h-3.4V75.3z M399.2,72.9v-1.6h-3.5v1.6H399.2z
			 M399.2,75.3v-1.6h-3.5v1.6H399.2z"/>
	</g>
</g>
</svg>
